<svg width="225" height="67" viewBox="0 0 225 67" fill="none" xmlns="http://www.w3.org/2000/svg">
<path d="M46.1269 2.50339C46.3463 2.50339 46.5308 2.57818 46.6804 2.72713C46.83 2.87733 46.9048 3.05682 46.9048 3.26623C46.9048 3.47564 46.83 3.66012 46.6804 3.81905C46.5308 3.97922 46.3463 4.059 46.1269 4.059C39.3062 4.059 31.6977 4.43792 23.3014 5.19516V5.37466C23.1817 5.95365 23.0122 6.82618 22.7928 7.99289C22.5734 9.15959 22.2145 11.3135 21.7159 14.4546C21.2173 17.5958 20.7685 20.7419 20.3697 23.8924C19.9708 27.0441 19.6218 30.6739 19.3226 34.7823C19.0235 38.8913 18.8739 42.7192 18.8739 46.2698C18.8739 49.8192 19.1082 53.3492 19.5769 56.8599C20.0456 60.37 20.7685 63.2918 21.7458 65.6246C21.8256 65.8246 21.8256 66.0241 21.7458 66.2235C21.666 66.4229 21.5264 66.5619 21.327 66.6423C21.2272 66.6822 21.1275 66.7021 21.0278 66.7021C20.6888 66.7021 20.4494 66.542 20.3098 66.2235C17.1986 58.7446 16.5106 46.2991 18.2457 28.8889C19.0633 20.692 20.2201 12.8442 21.7159 5.34536C13.6387 6.10322 6.7182 6.97077 0.954471 7.94739H0.834813C0.635376 7.94739 0.465853 7.88818 0.326248 7.76852C0.186642 7.64886 0.0968955 7.48931 0.0570081 7.28987C0.0370644 7.09044 0.0869223 6.90596 0.206584 6.73644C0.326247 6.56754 0.495769 6.46283 0.71515 6.42232C1.01431 6.36187 1.49794 6.28272 2.16605 6.18237C2.83416 6.08328 4.11555 5.8988 6.0102 5.62956C7.90485 5.36032 9.85933 5.10105 11.8736 4.85175C13.888 4.60246 16.3361 4.32823 19.2179 4.02908C22.0998 3.72992 24.9318 3.47564 27.7139 3.26623C30.4961 3.05682 33.5225 2.87733 36.7933 2.72713C40.0641 2.57818 43.1753 2.50339 46.1269 2.50339Z" fill="#3C6A5A"/>
<path d="M34.8792 14.7983C34.1014 15.497 33.4825 17.4814 33.0244 20.7515C32.5651 24.0229 32.4859 27.3535 32.7851 30.7433C33.4432 28.5495 33.9967 26.4859 34.4454 24.5508C34.8941 22.6169 35.2126 20.9759 35.4027 19.6297C35.5922 18.2835 35.6719 17.1872 35.642 16.3396C35.6121 15.4914 35.4775 14.9778 35.2382 14.7983C35.1584 14.7385 35.0986 14.7086 35.0587 14.7086C35.0182 14.7086 34.9583 14.7385 34.8792 14.7983ZM56.7474 32.9421C56.9462 32.9327 57.1164 32.9919 57.256 33.1216C57.395 33.2512 57.4698 33.4164 57.4804 33.6152C57.4897 33.8152 57.4355 33.9848 57.3158 34.1238C53.3071 38.5718 50.0956 40.7949 47.683 40.7949C47.5035 40.7949 47.3334 40.7849 47.1745 40.765C46.6958 40.7052 46.2365 40.5556 45.7983 40.3163C45.359 40.0776 44.9906 39.8227 44.6915 39.554C44.3923 39.2842 44.0632 38.8853 43.7043 38.3568C43.3453 37.8289 43.076 37.4001 42.8965 37.0704C42.717 36.7414 42.4578 36.2584 42.1187 35.6195C41.1209 33.7654 40.3039 32.5382 39.6657 31.9399C39.326 31.6214 39.0268 31.5111 38.7682 31.6115C38.3089 31.7505 37.8358 32.3188 37.3472 33.316C36.858 34.3132 36.4391 35.4101 36.0908 36.6067C35.7411 37.8034 35.4575 39 35.2382 40.1966C35.1783 40.5163 34.9882 40.7052 34.6698 40.765C34.35 40.8248 34.1014 40.7158 33.9219 40.4366C32.9241 38.8012 32.1961 36.5768 31.738 33.7654C31.2793 30.9527 31.0998 28.2005 31.1996 25.5087C31.2993 22.8157 31.5934 20.3476 32.0821 18.1046C32.5701 15.8603 33.1833 14.4094 33.9219 13.7513C34.6398 13.1137 35.3678 13.0832 36.1057 13.6615C36.4448 13.9214 36.6934 14.3446 36.8536 14.9329C37.0125 15.5213 37.0929 16.1701 37.0929 16.8774C37.0929 17.5861 37.0225 18.4231 36.8835 19.3903C36.7439 20.3582 36.5887 21.2551 36.4198 22.0827C36.2503 22.911 36.0459 23.8434 35.8066 24.8799C35.0886 27.9119 34.2509 30.9128 33.2936 33.8844C33.2731 33.9449 33.2432 33.9947 33.2039 34.034C33.4825 35.4899 33.8321 36.7769 34.2509 37.8937C35.3678 33.3266 36.7233 30.7732 38.3195 30.2354C39.1166 29.9761 39.885 30.1948 40.623 30.8929C40.9819 31.2126 41.3409 31.6258 41.6999 32.1344C42.0589 32.6429 42.3375 33.0767 42.5376 33.4357C42.7364 33.7947 43.0162 34.3032 43.3752 34.962C43.7535 35.6794 44.0483 36.2178 44.2577 36.5768C44.4671 36.9358 44.7463 37.3596 45.0953 37.8482C45.4437 38.3375 45.8027 38.6965 46.1723 38.9252C46.5406 39.1546 46.9351 39.2991 47.354 39.359C49.3477 39.5983 52.3093 37.5341 56.2389 33.1671C56.3779 33.0275 56.548 32.9527 56.7474 32.9421" fill="#3C6A5A"/>
<path d="M58.96 32.9577C58.6409 33.1366 58.3511 33.3267 58.0924 33.5255C59.1694 34.0447 60.4153 34.3033 61.8319 34.3033C62.4302 34.3033 62.9437 34.2541 63.3725 34.1544C63.8013 34.0546 64.1055 33.9449 64.285 33.8253C64.4645 33.705 64.5735 33.586 64.614 33.4657C64.6932 33.227 64.5735 32.9677 64.255 32.6879C63.7365 32.2497 63.0285 32.0303 62.131 32.0303C61.2336 32.0303 60.1766 32.3395 58.96 32.9577ZM77.9713 32.9428C78.1608 32.9721 78.3153 33.0674 78.435 33.227C78.5547 33.3865 78.5995 33.561 78.5696 33.7499C78.5397 33.94 78.445 34.0939 78.2854 34.2142C75.1343 36.5476 72.1079 38.3326 69.2061 39.5684C66.3043 40.8056 63.7166 41.4238 61.443 41.4238C59.9472 41.4238 58.6409 41.154 57.524 40.6155C56.6864 40.1967 56.0283 39.6538 55.5496 38.9857C55.071 38.3176 54.8217 37.5747 54.8017 36.757C54.7818 35.7997 55.076 34.8717 55.6842 33.9749C56.2925 33.0768 57.1551 32.3195 58.2719 31.7007C59.2093 31.1821 60.1367 30.8537 61.0541 30.7134C61.9715 30.5745 62.7692 30.5894 63.4473 30.7589C64.1254 30.9285 64.7038 31.2127 65.1824 31.6115C66.0001 32.3289 66.2594 33.1067 65.9602 33.9449C65.5215 35.1416 64.1454 35.7399 61.8319 35.7399C59.9771 35.7399 58.3717 35.351 57.0155 34.5732C56.477 35.2712 56.2184 35.9892 56.2377 36.7271C56.2576 37.8439 56.8958 38.7115 58.1523 39.3297C59.0896 39.7884 60.1766 40.0172 61.4131 40.0172C62.649 40.0172 63.926 39.8333 65.2423 39.4637C66.5585 39.0954 67.9347 38.5769 69.3706 37.9081C70.8065 37.2406 72.192 36.5021 73.5289 35.695C74.8651 34.8873 76.1714 34.0147 77.4478 33.0768C77.6067 32.9577 77.7812 32.9129 77.9713 32.9428" fill="#3C6A5A"/>
<path d="M118.491 54.6164C123.078 47.4361 124.135 42.2713 121.662 39.1202C121.483 38.9008 121.283 38.6814 121.064 38.4614C119.089 39.2 117.185 40.0226 115.35 40.9301C113.515 41.8375 111.596 42.9238 109.592 44.1902C107.587 45.4573 105.677 46.9325 103.863 48.6184C102.048 50.303 100.482 52.1129 99.1662 54.048C98.0095 55.7426 97.2566 57.3182 96.9076 58.7747C96.5586 60.23 96.6427 61.4764 97.1619 62.5141C97.5607 63.2919 98.184 63.9146 99.0316 64.3839C99.8792 64.8519 100.891 65.1168 102.068 65.176C103.205 65.2365 104.431 65.0962 105.748 64.7572C107.064 64.4188 108.455 63.8603 109.921 63.0825C111.387 62.3047 112.872 61.1873 114.378 59.732C115.883 58.2755 117.255 56.5709 118.491 54.6164V54.6164ZM136.86 33.0623C137.019 33.1919 137.113 33.3614 137.144 33.5702C137.174 33.7796 137.123 33.9697 136.994 34.1392C136.864 34.3088 136.69 34.4035 136.471 34.4234C136.032 34.4827 135.379 34.5874 134.511 34.7376C133.643 34.8871 132.008 35.2511 129.605 35.8289C127.201 36.4078 124.883 37.0959 122.649 37.8936C122.729 37.9934 122.809 38.0931 122.889 38.1922C125.801 41.9023 124.773 47.6555 119.807 55.4541C118.531 57.4478 117.115 59.2029 115.559 60.7192C114.004 62.2343 112.464 63.416 110.937 64.2636C109.412 65.1112 107.951 65.7344 106.555 66.1333C105.159 66.5322 103.833 66.7316 102.577 66.7316H101.978C100.522 66.6525 99.256 66.3028 98.179 65.6852C97.102 65.0669 96.3043 64.2387 95.7858 63.2016C95.1469 61.9052 95.008 60.3901 95.3669 58.6544C95.7259 56.9193 96.5636 55.0951 97.8798 53.1799C98.5779 52.1627 99.3457 51.1712 100.183 50.2039C101.021 49.236 102.083 48.174 103.369 47.0179C104.656 45.8605 106.052 44.7543 107.558 43.6966C109.063 42.6396 110.853 41.5583 112.927 40.4508C115.001 39.3439 117.215 38.3224 119.569 37.3851C118.193 36.6272 116.437 36.118 114.303 35.8588C112.169 35.6001 109.925 35.5746 107.572 35.784C105.219 35.9934 102.786 36.3979 100.273 36.9962C98.5978 37.5746 96.8328 38.0731 94.978 38.492C94.7786 38.5318 94.5891 38.5026 94.4096 38.4016C94.2301 38.3025 94.1105 38.1529 94.0507 37.9535C94.0108 37.8139 94.0058 37.6842 94.0357 37.5646C94.0656 37.4443 94.1254 37.3352 94.2152 37.2349C94.3049 37.1358 94.4196 37.0554 94.5592 36.9962C96.1946 36.4571 97.9197 35.9691 99.7346 35.5303C101.709 34.8522 103.539 34.0595 105.224 33.152C106.909 32.2446 108.35 31.3322 109.547 30.4148C110.744 29.4974 111.835 28.5052 112.823 27.4382C113.809 26.3712 114.612 25.3734 115.231 24.4466C115.848 23.5192 116.398 22.5576 116.876 21.5598C117.355 20.562 117.703 19.715 117.923 19.0169C118.142 18.3189 118.331 17.6209 118.491 16.9229C119.03 14.3302 119.03 11.8771 118.491 9.56363C117.953 7.25016 116.985 5.56492 115.59 4.5079C114.014 3.33122 112.249 3.27139 110.295 4.32841C104.591 7.37979 100.024 12.4255 96.5935 19.4657C93.8213 25.1696 91.8369 32.0202 90.6403 40.017C90.2813 42.4707 90.0021 45.003 89.8026 47.6162C89.6425 53.6785 89.6232 59.7918 89.7428 65.9538C89.7428 66.1532 89.673 66.3284 89.5334 66.4773C89.3938 66.6269 89.2193 66.7117 89.0099 66.7316C88.8005 66.7516 88.621 66.6917 88.4714 66.5521C88.3218 66.4131 88.2371 66.243 88.2171 66.0442C88.1573 65.4459 88.0925 64.5827 88.0227 63.4565C87.9522 62.329 87.918 60.1652 87.918 56.9648C87.918 53.7638 88.0277 50.6271 88.247 47.5564C88.4066 42.1317 88.6858 36.8017 89.0847 31.5665C89.4835 26.3307 89.8824 22.0185 90.2813 18.628C90.6802 15.237 91.1233 12.0267 91.6125 8.99523C92.1012 5.96379 92.4452 3.95446 92.6446 2.96725C92.8441 1.98004 92.993 1.25708 93.0934 0.797752C93.1332 0.598938 93.2479 0.438762 93.4374 0.319723C93.6269 0.200061 93.8213 0.16516 94.0207 0.215019C94.2202 0.264878 94.3797 0.379556 94.4994 0.559049C94.6191 0.738542 94.649 0.937979 94.5891 1.15736C94.5293 1.43657 94.4296 1.90525 94.29 2.56339C94.1504 3.22091 93.911 4.5428 93.572 6.5272C93.233 8.5116 92.9033 10.6256 92.5848 12.8693C92.2657 15.1123 91.9161 17.9749 91.5377 21.4551C91.1588 24.9352 90.8397 28.4902 90.5805 32.1193C91.7571 27.134 93.2922 22.6959 95.1874 18.8075C98.7773 11.4683 103.564 6.18255 109.547 2.95229C110.783 2.29415 111.999 1.99437 113.196 2.0542C114.393 2.11466 115.499 2.52351 116.517 3.28137C118.172 4.5372 119.324 6.44742 119.972 9.00957C120.62 11.573 120.625 14.3202 119.987 17.2519C118.99 21.9181 116.607 26.0371 112.838 29.6064C110.903 31.4419 108.669 33.0473 106.137 34.4234C108.171 34.2041 110.1 34.1043 111.925 34.1237C113.75 34.1436 115.499 34.3742 117.175 34.8124C118.85 35.2511 120.245 35.8793 121.363 36.697C121.383 36.697 121.403 36.692 121.423 36.6821C121.442 36.6721 121.463 36.6665 121.483 36.6665C122.978 36.1286 124.509 35.63 126.075 35.1713C127.64 34.712 128.971 34.3536 130.068 34.0938C131.165 33.8351 132.238 33.6058 133.284 33.4063C134.331 33.2069 135.039 33.0766 135.409 33.0174C135.777 32.9576 136.071 32.9177 136.291 32.8971C136.51 32.8778 136.7 32.9327 136.86 33.0623" fill="#3C6A5A"/>
<path d="M138.325 32.9577C138.006 33.1366 137.716 33.3267 137.457 33.5255C138.535 34.0447 139.78 34.3033 141.196 34.3033C141.795 34.3033 142.309 34.2541 142.738 34.1544C143.167 34.0546 143.471 33.9449 143.65 33.8253C143.83 33.705 143.939 33.586 143.979 33.4657C144.058 33.227 143.939 32.9677 143.62 32.6879C143.101 32.2497 142.393 32.0303 141.496 32.0303C140.598 32.0303 139.541 32.3395 138.325 32.9577ZM157.337 32.9428C157.526 32.9721 157.681 33.0674 157.8 33.227C157.919 33.3865 157.965 33.561 157.935 33.7499C157.905 33.94 157.81 34.0939 157.651 34.2142C154.499 36.5476 151.473 38.3326 148.571 39.5684C145.669 40.8056 143.082 41.4238 140.808 41.4238C139.312 41.4238 138.006 41.154 136.889 40.6155C136.052 40.1967 135.394 39.6538 134.914 38.9857C134.436 38.3176 134.187 37.5747 134.167 36.757C134.147 35.7997 134.441 34.8717 135.049 33.9749C135.658 33.0768 136.52 32.3195 137.637 31.7007C138.574 31.1821 139.502 30.8537 140.419 30.7134C141.336 30.5745 142.134 30.5894 142.812 30.7589C143.49 30.9285 144.069 31.2127 144.547 31.6115C145.365 32.3289 145.625 33.1067 145.325 33.9449C144.886 35.1416 143.51 35.7399 141.196 35.7399C139.342 35.7399 137.737 35.351 136.381 34.5732C135.842 35.2712 135.584 35.9892 135.603 36.7271C135.623 37.8439 136.26 38.7115 137.518 39.3297C138.454 39.7884 139.541 40.0172 140.778 40.0172C142.014 40.0172 143.291 39.8333 144.607 39.4637C145.923 39.0954 147.299 38.5769 148.736 37.9081C150.172 37.2406 151.557 36.5021 152.894 35.695C154.23 34.8873 155.536 34.0147 156.813 33.0768C156.972 32.9577 157.146 32.9129 157.337 32.9428" fill="#3C6A5A"/>
<path d="M157.023 39.5687C157.162 39.6684 157.356 39.684 157.607 39.6135C157.855 39.5437 158.124 39.4341 158.414 39.2845C158.702 39.1349 159.042 38.8763 159.431 38.5067C159.82 38.1377 160.213 37.7046 160.612 37.2053C161.011 36.7068 161.45 36.0835 161.929 35.3356C162.407 34.5877 162.876 33.7551 163.335 32.8377C162.457 31.9801 161.589 31.5513 160.732 31.5513C160.612 31.5513 160.493 31.5613 160.373 31.5818C159.057 31.8006 157.91 33.1468 156.933 35.6198C156.554 36.6569 156.384 37.5344 156.424 38.2524C156.464 38.9704 156.664 39.4091 157.023 39.5687ZM178.516 32.9424C178.706 32.9723 178.861 33.0627 178.98 33.2116C179.101 33.3612 179.149 33.5357 179.13 33.7351C179.11 33.9346 179.02 34.0941 178.861 34.2138C173.516 38.3826 169.537 40.4661 166.925 40.4661C166.127 40.4661 165.438 40.2667 164.86 39.8678C163.803 39.1305 163.265 37.8037 163.245 35.8891C162.208 37.5643 161.186 38.8463 160.179 39.7332C159.171 40.6207 158.238 41.0645 157.382 41.0645C157.042 41.0645 156.724 41.0046 156.424 40.885C155.646 40.526 155.183 39.808 155.033 38.731C154.884 37.6541 155.078 36.4475 155.617 35.1113C156.793 32.1197 158.309 30.4744 160.164 30.1752C161.4 29.9758 162.647 30.3946 163.903 31.4316C163.963 31.1929 164.022 30.9829 164.082 30.804C164.142 30.604 164.256 30.4594 164.427 30.3696C164.596 30.2799 164.774 30.2699 164.964 30.3397C165.155 30.4102 165.294 30.5298 165.383 30.6993C165.474 30.8682 165.488 31.0427 165.428 31.2222C165.089 32.3391 164.86 33.4559 164.741 34.5728C164.521 36.7267 164.83 38.1028 165.668 38.7011C165.987 38.9211 166.401 39.0302 166.91 39.0302C167.419 39.0302 168.126 38.8956 169.034 38.6263C169.941 38.3571 171.168 37.7488 172.714 36.8021C174.258 35.8548 176.018 34.6133 177.993 33.077C178.152 32.958 178.327 32.9125 178.516 32.9424" fill="#3C6A5A"/>
<path d="M199.517 32.9272C199.707 32.9471 199.862 33.0375 199.981 33.1971C200.101 33.356 200.146 33.5361 200.115 33.7349C200.086 33.9343 199.991 34.0939 199.831 34.2136C196.66 36.5476 193.624 38.3326 190.723 39.5684C187.82 40.8056 185.232 41.4238 182.96 41.4238C181.482 41.4238 180.187 41.154 179.07 40.6155C178.233 40.1967 177.574 39.6538 177.095 38.9857C176.617 38.317 176.368 37.5847 176.348 36.7863C176.328 35.829 176.622 34.9016 177.23 34.0048C177.838 33.1067 178.701 32.3488 179.818 31.7306C180.596 31.2924 181.358 30.9827 182.106 30.8038C182.855 30.6243 183.502 30.5745 184.051 30.6542C184.599 30.7334 185.028 30.8181 185.337 30.9085C185.646 30.9976 185.921 31.1129 186.16 31.2519C187.097 31.791 187.576 32.4785 187.596 33.3161C187.616 33.5155 187.556 33.6857 187.416 33.8247C187.277 33.9649 187.107 34.0341 186.908 34.0341C186.708 34.0341 186.539 33.9699 186.399 33.8396C186.26 33.7106 186.19 33.5454 186.19 33.346C186.17 33.0469 185.921 32.7583 185.442 32.4785C185.103 32.2796 184.699 32.1494 184.231 32.0896C183.762 32.0303 183.194 32.0702 182.525 32.2098C181.857 32.3488 181.184 32.6087 180.506 32.9876C179.628 33.4657 178.95 34.0391 178.472 34.7072C177.994 35.3759 177.764 36.049 177.784 36.7271C177.803 37.8633 178.442 38.7314 179.698 39.3291C180.616 39.7884 181.697 40.0172 182.944 40.0172C184.19 40.0172 185.467 39.8333 186.774 39.4637C188.079 39.0948 189.455 38.5762 190.902 37.9081C192.347 37.2406 193.739 36.5021 195.075 35.6944C196.411 34.8873 197.717 34.0048 198.994 33.0469C199.153 32.9471 199.328 32.9079 199.517 32.9272Z" fill="#3C6A5A"/>
<path d="M202.344 14.7983C201.567 15.497 200.948 17.4814 200.49 20.7515C200.031 24.0229 199.951 27.3535 200.251 30.7433C200.908 28.5495 201.462 26.4859 201.911 24.5508C202.359 22.6169 202.678 20.9759 202.868 19.6297C203.057 18.2835 203.137 17.1872 203.108 16.3396C203.077 15.4914 202.943 14.9778 202.703 14.7983C202.624 14.7385 202.564 14.7086 202.524 14.7086C202.484 14.7086 202.424 14.7385 202.344 14.7983ZM224.213 32.9421C224.412 32.9327 224.582 32.9919 224.721 33.1216C224.861 33.2512 224.936 33.4164 224.946 33.6152C224.956 33.8152 224.901 33.9848 224.781 34.1238C220.772 38.5718 217.561 40.7949 215.148 40.7949C214.969 40.7949 214.799 40.7849 214.64 40.765C214.161 40.7052 213.702 40.5556 213.264 40.3163C212.825 40.0776 212.456 39.8227 212.157 39.554C211.858 39.2842 211.528 38.8853 211.169 38.3568C210.81 37.8289 210.541 37.4001 210.362 37.0704C210.182 36.7414 209.923 36.2584 209.584 35.6195C208.587 33.7654 207.769 32.5382 207.131 31.9399C206.792 31.6214 206.492 31.5111 206.233 31.6115C205.775 31.7505 205.301 32.3188 204.812 33.316C204.324 34.3132 203.905 35.4101 203.556 36.6067C203.207 37.8034 202.923 39 202.703 40.1966C202.644 40.5163 202.454 40.7052 202.135 40.765C201.816 40.8248 201.567 40.7158 201.387 40.4366C200.389 38.8012 199.662 36.5768 199.203 33.7654C198.745 30.9527 198.566 28.2005 198.665 25.5087C198.765 22.8157 199.059 20.3476 199.548 18.1046C200.036 15.8603 200.649 14.4094 201.387 13.7513C202.105 13.1137 202.833 13.0832 203.571 13.6615C203.91 13.9214 204.159 14.3446 204.319 14.9329C204.478 15.5213 204.559 16.1701 204.559 16.8774C204.559 17.5861 204.488 18.4231 204.349 19.3903C204.209 20.3582 204.055 21.2551 203.886 22.0827C203.716 22.911 203.511 23.8434 203.272 24.8799C202.554 27.9119 201.716 30.9128 200.759 33.8844C200.739 33.9449 200.709 33.9947 200.669 34.034C200.948 35.4899 201.297 36.7769 201.716 37.8937C202.833 33.3266 204.189 30.7732 205.785 30.2354C206.582 29.9761 207.35 30.1948 208.088 30.8929C208.447 31.2126 208.806 31.6258 209.165 32.1344C209.525 32.6429 209.803 33.0767 210.003 33.4357C210.202 33.7947 210.482 34.3032 210.84 34.962C211.219 35.6794 211.513 36.2178 211.723 36.5768C211.932 36.9358 212.212 37.3596 212.561 37.8482C212.91 38.3375 213.268 38.6965 213.637 38.9252C214.006 39.1546 214.401 39.2991 214.82 39.359C216.814 39.5983 219.775 37.5341 223.704 33.1671C223.844 33.0275 224.013 32.9527 224.213 32.9421" fill="#3C6A5A"/>
</svg>
