<svg width="19" height="19" viewBox="0 0 19 19" fill="none" xmlns="http://www.w3.org/2000/svg">
<path fill-rule="evenodd" clip-rule="evenodd" d="M10.8087 9.00195L4.09088 16.0022C3.92213 16.175 3.92614 16.4603 4.09891 16.6371L5.30025 17.8668C5.47302 18.0436 5.75427 18.0476 5.92302 17.8748L14.1275 9.32745C14.2159 9.23905 14.2561 9.11849 14.248 9.00195C14.252 8.8814 14.2119 8.76486 14.1275 8.67645L5.92302 0.129078C5.75427 -0.0437185 5.47302 -0.0397 5.30025 0.137115L4.09891 1.36678C3.92614 1.54359 3.92213 1.82891 4.09088 2.0017L10.8087 9.00195Z" fill="#3C6A5A"/>
<mask id="mask0_191_10127" style="mask-type:alpha" maskUnits="userSpaceOnUse" x="3" y="0" width="12" height="19">
<path fill-rule="evenodd" clip-rule="evenodd" d="M10.8087 9.00195L4.09088 16.0022C3.92213 16.175 3.92614 16.4603 4.09891 16.6371L5.30025 17.8668C5.47302 18.0436 5.75427 18.0476 5.92302 17.8748L14.1275 9.32745C14.2159 9.23905 14.2561 9.11849 14.248 9.00195C14.252 8.8814 14.2119 8.76486 14.1275 8.67645L5.92302 0.129078C5.75427 -0.0437185 5.47302 -0.0397 5.30025 0.137115L4.09891 1.36678C3.92614 1.54359 3.92213 1.82891 4.09088 2.0017L10.8087 9.00195Z" fill="white"/>
</mask>
<g mask="url(#mask0_191_10127)">
<rect x="18.002" width="18" height="18" transform="rotate(90 18.002 0)" fill="#3C6A5A"/>
</g>
</svg>
