<svg width="48" height="40" viewBox="0 0 48 40" fill="none" xmlns="http://www.w3.org/2000/svg">
<rect width="48" height="40" rx="5" fill="#3C6A5A"/>
<path d="M21.9996 26.9997V21.9997H25.9996V26.9997C25.9996 27.5497 26.4496 27.9997 26.9996 27.9997H29.9996C30.5496 27.9997 30.9996 27.5497 30.9996 26.9997V19.9997H32.6996C33.1596 19.9997 33.3796 19.4297 33.0296 19.1297L24.6696 11.5997C24.2896 11.2597 23.7096 11.2597 23.3296 11.5997L14.9696 19.1297C14.6296 19.4297 14.8396 19.9997 15.2996 19.9997H16.9996V26.9997C16.9996 27.5497 17.4496 27.9997 17.9996 27.9997H20.9996C21.5496 27.9997 21.9996 27.5497 21.9996 26.9997Z" fill="white"/>
</svg>
