<svg width="68" height="38" viewBox="0 0 68 38" fill="none" xmlns="http://www.w3.org/2000/svg">
<g filter="url(#filter0_d_372_563)">
<rect x="4" width="60" height="30" fill="#D67E2D"/>
<path d="M27.75 20H26.476L21.352 12.23V20H20.078V10.228H21.352L26.476 17.984V10.228H27.75V20ZM36.9218 15.87C36.9218 16.1127 36.9078 16.3693 36.8798 16.64H30.7478C30.7944 17.396 31.0511 17.9887 31.5178 18.418C31.9938 18.838 32.5678 19.048 33.2398 19.048C33.7904 19.048 34.2478 18.922 34.6118 18.67C34.9851 18.4087 35.2464 18.0633 35.3958 17.634H36.7678C36.5624 18.3713 36.1518 18.9733 35.5358 19.44C34.9198 19.8973 34.1544 20.126 33.2398 20.126C32.5118 20.126 31.8584 19.9627 31.2798 19.636C30.7104 19.3093 30.2624 18.8473 29.9358 18.25C29.6091 17.6433 29.4458 16.9433 29.4458 16.15C29.4458 15.3567 29.6044 14.6613 29.9218 14.064C30.2391 13.4667 30.6824 13.0093 31.2518 12.692C31.8304 12.3653 32.4931 12.202 33.2398 12.202C33.9678 12.202 34.6118 12.3607 35.1718 12.678C35.7318 12.9953 36.1611 13.434 36.4598 13.994C36.7678 14.5447 36.9218 15.17 36.9218 15.87ZM35.6058 15.604C35.6058 15.1187 35.4984 14.7033 35.2838 14.358C35.0691 14.0033 34.7751 13.7373 34.4018 13.56C34.0378 13.3733 33.6318 13.28 33.1838 13.28C32.5398 13.28 31.9891 13.4853 31.5318 13.896C31.0838 14.3067 30.8271 14.876 30.7618 15.604H35.6058ZM48.8234 12.328L46.4294 20H45.1134L43.2654 13.91L41.4174 20H40.1014L37.6934 12.328H38.9954L40.7594 18.768L42.6634 12.328H43.9654L45.8274 18.782L47.5634 12.328H48.8234Z" fill="white"/>
</g>
<defs>
<filter id="filter0_d_372_563" x="0" y="0" width="68" height="38" filterUnits="userSpaceOnUse" color-interpolation-filters="sRGB">
<feFlood flood-opacity="0" result="BackgroundImageFix"/>
<feColorMatrix in="SourceAlpha" type="matrix" values="0 0 0 0 0 0 0 0 0 0 0 0 0 0 0 0 0 0 127 0" result="hardAlpha"/>
<feOffset dy="4"/>
<feGaussianBlur stdDeviation="2"/>
<feComposite in2="hardAlpha" operator="out"/>
<feColorMatrix type="matrix" values="0 0 0 0 0 0 0 0 0 0 0 0 0 0 0 0 0 0 0.25 0"/>
<feBlend mode="normal" in2="BackgroundImageFix" result="effect1_dropShadow_372_563"/>
<feBlend mode="normal" in="SourceGraphic" in2="effect1_dropShadow_372_563" result="shape"/>
</filter>
</defs>
</svg>
