<svg width="37" height="37" viewBox="0 0 37 37" fill="none" xmlns="http://www.w3.org/2000/svg">
<path fill-rule="evenodd" clip-rule="evenodd" d="M14.7777 18.467L27.9027 4.17492C28.2326 3.822 28.212 3.25169 27.8588 2.90573L25.4027 0.499746C25.0495 0.153792 24.4869 0.158103 24.1571 0.511022L8.12746 17.9619C7.9546 18.1426 7.87956 18.3854 7.90074 18.6181C7.898 18.8593 7.98346 19.0905 8.15605 19.2636L24.9364 35.994C25.2814 36.3321 25.8436 36.3117 26.1812 35.9505L28.5293 33.4391C28.867 33.0779 28.8625 32.5073 28.5175 32.1692L14.7777 18.467Z" fill="#D67E2D"/>
<mask id="mask0_201_10810" style="mask-type:alpha" maskUnits="userSpaceOnUse" x="7" y="0" width="22" height="37">
<path fill-rule="evenodd" clip-rule="evenodd" d="M14.7777 18.467L27.9027 4.17492C28.2326 3.822 28.212 3.25169 27.8588 2.90573L25.4027 0.499746C25.0495 0.153792 24.4869 0.158103 24.1571 0.511022L8.12746 17.9619C7.9546 18.1426 7.87956 18.3854 7.90074 18.6181C7.898 18.8593 7.98346 19.0905 8.15605 19.2636L24.9364 35.994C25.2814 36.3321 25.8436 36.3117 26.1812 35.9505L28.5293 33.4391C28.867 33.0779 28.8625 32.5073 28.5175 32.1692L14.7777 18.467Z" fill="white"/>
</mask>
<g mask="url(#mask0_201_10810)">
<rect x="0.790039" y="36.7817" width="36" height="36" transform="rotate(-91.2581 0.790039 36.7817)" fill="#D67E2D"/>
</g>
</svg>
