<svg width="48" height="40" viewBox="0 0 48 40" fill="none" xmlns="http://www.w3.org/2000/svg">
<rect width="47.9998" height="39.9999" rx="5" fill="#3C6A5A"/>
<path fill-rule="evenodd" clip-rule="evenodd" d="M30.1202 25.0466C28.9154 25.7871 27.7058 26.5224 26.4914 27.2525C25.877 27.6202 25.2626 27.9826 24.6482 28.3555C24.3938 28.5108 24.125 28.7594 23.8274 28.8163C23.5202 28.8733 23.237 28.7076 22.9586 28.5937C22.2338 28.2882 21.4946 27.993 20.7698 27.6927C20.333 27.5114 20.5058 26.9522 20.7314 26.6829C21.0482 26.3049 21.6098 26.6415 21.941 26.8072C22.445 27.0609 22.9778 27.2111 23.5058 27.3923C24.6818 27.8014 25.9106 25.7405 24.8066 24.9275C24.3986 24.6323 23.813 24.4821 23.3522 24.2854C22.3442 23.8556 21.3314 23.431 20.333 22.9753C19.6706 22.6749 19.0034 22.2814 18.2834 22.183C17.6162 22.095 16.8434 22.2193 16.2002 22.4212C15.845 22.5299 15.4418 22.7215 15.1586 22.9805C14.9666 23.1565 14.8034 23.4258 14.7266 23.6847V29.4843C14.7266 29.4843 14.7602 29.8157 15.0674 29.7381C15.9746 29.5102 17.0546 29.5775 17.957 29.7898C18.8066 29.9918 19.5794 30.4889 20.381 30.8358C21.269 31.219 22.181 31.5246 23.0786 31.8663C24.5618 32.4307 25.6178 31.0689 26.7938 30.3543C28.229 29.4843 29.6594 28.604 31.0898 27.7341C31.3298 27.5891 31.565 27.4441 31.805 27.2991C32.1746 27.0713 32.5298 26.2376 32.4914 25.8078C32.381 24.4718 30.9266 24.5495 30.1202 25.0466Z" fill="white"/>
<path fill-rule="evenodd" clip-rule="evenodd" d="M13.7808 23.6699H12.576C12.2592 23.6699 12 23.9495 12 24.2913V29.1226C12 29.4644 12.2592 29.744 12.576 29.744H13.7808C14.0976 29.744 14.3568 29.4644 14.3568 29.1226V24.2913C14.3568 23.9495 14.0976 23.6699 13.7808 23.6699ZM13.488 25.0939C13.248 25.0939 13.056 24.8868 13.056 24.6279C13.056 24.369 13.248 24.1619 13.488 24.1619C13.728 24.1619 13.92 24.369 13.92 24.6279C13.92 24.8816 13.7232 25.0939 13.488 25.0939Z" fill="white"/>
<path d="M35.9993 20.3184H15.8633V21.2039H35.9993V20.3184Z" fill="white"/>
<path fill-rule="evenodd" clip-rule="evenodd" d="M17.6009 19.8426C17.6153 19.7028 17.6393 19.4853 17.6777 19.2575C17.6873 19.2109 17.6921 19.1643 17.7017 19.1125C17.7113 19.0607 17.7209 19.0089 17.7353 18.9572C17.7593 18.8484 17.7833 18.7293 17.8073 18.605C17.8217 18.5429 17.8361 18.4756 17.8505 18.4134C17.8697 18.3461 17.8841 18.2788 17.9033 18.2115C17.9417 18.0717 17.9801 17.9267 18.0185 17.7765C18.1145 17.4762 18.2105 17.1499 18.3401 16.8185C18.3737 16.7357 18.4025 16.6477 18.4361 16.5648C18.4745 16.482 18.5081 16.3939 18.5465 16.3111C18.5849 16.223 18.6233 16.1402 18.6569 16.0522C18.6953 15.9641 18.7385 15.8813 18.7817 15.7932C18.8249 15.7052 18.8681 15.6172 18.9113 15.5292C18.9545 15.4411 19.0073 15.3583 19.0505 15.2702C19.0985 15.1822 19.1465 15.0994 19.1945 15.0113C19.2473 14.9233 19.3001 14.8405 19.3529 14.7576C19.4057 14.6747 19.4585 14.5867 19.5113 14.5039C19.5689 14.421 19.6265 14.3382 19.6841 14.2553C19.7945 14.0896 19.9193 13.9291 20.0393 13.7737C20.0969 13.6909 20.1641 13.6184 20.2265 13.5407C20.2889 13.463 20.3561 13.3905 20.4185 13.3129C20.4857 13.2404 20.5529 13.1679 20.6153 13.0954C20.6825 13.0229 20.7449 12.9504 20.8169 12.8831C20.8841 12.8158 20.9513 12.7484 21.0185 12.6759C21.0857 12.6086 21.1577 12.5465 21.2249 12.4792C21.3593 12.3497 21.5033 12.2306 21.6377 12.1115C21.7049 12.0494 21.7769 11.9976 21.8441 11.9406C21.9161 11.8837 21.9833 11.8267 22.0505 11.7801C22.1897 11.6765 22.3241 11.573 22.4585 11.485C22.7273 11.2985 22.9913 11.138 23.2361 10.993C23.4809 10.8532 23.7113 10.7341 23.9177 10.6357C24.1241 10.5373 24.3065 10.4597 24.4553 10.3975C24.7577 10.2732 24.9353 10.2266 24.9353 10.2266C24.9353 10.2266 24.7625 10.294 24.4745 10.4493C24.1865 10.5995 23.7833 10.8377 23.3273 11.1691C23.1017 11.3348 22.8569 11.5212 22.6121 11.7283C22.4873 11.8319 22.3673 11.9458 22.2377 12.0597C22.1753 12.1167 22.1129 12.1788 22.0505 12.241C21.9881 12.3031 21.9257 12.3601 21.8633 12.4274C21.7433 12.5568 21.6137 12.6863 21.4937 12.8261C21.4361 12.8934 21.3689 12.9608 21.3113 13.0332C21.2537 13.1057 21.1961 13.1782 21.1337 13.2507C21.0713 13.3232 21.0185 13.3957 20.9609 13.4734C20.9033 13.5511 20.8457 13.6236 20.7929 13.7012C20.7401 13.7789 20.6873 13.8566 20.6297 13.9343C20.5769 14.0119 20.5193 14.0896 20.4713 14.1725C20.3705 14.3382 20.2649 14.4935 20.1785 14.6644C20.1305 14.7472 20.0873 14.8301 20.0393 14.9129C19.9961 14.9958 19.9529 15.0838 19.9097 15.1667C19.8665 15.2495 19.8233 15.3324 19.7849 15.4204C19.7465 15.5084 19.7081 15.5913 19.6745 15.6741C19.6361 15.757 19.5977 15.8399 19.5641 15.9279C19.5305 16.0107 19.4969 16.0988 19.4681 16.1816C19.4345 16.2645 19.4009 16.3473 19.3721 16.4302C19.3433 16.513 19.3193 16.5959 19.2905 16.6787C19.2617 16.7616 19.2377 16.8444 19.2089 16.9221C19.1849 17.005 19.1657 17.0826 19.1417 17.1655C19.0457 17.4814 18.9881 17.792 18.9257 18.0717C18.9017 18.2167 18.8777 18.3513 18.8585 18.4808C18.8489 18.5481 18.8345 18.6102 18.8249 18.6723C18.8153 18.7345 18.8105 18.7966 18.8009 18.8536C18.7865 18.9727 18.7721 19.0814 18.7625 19.1798C18.7577 19.2316 18.7529 19.2782 18.7433 19.3248C18.7385 19.3714 18.7385 19.418 18.7337 19.4594C18.7193 19.6407 18.7097 19.7753 18.7049 19.8685H35.2169C35.2169 19.8271 35.2169 19.7857 35.2169 19.7442C35.2169 14.1725 31.2281 9.63115 26.2409 9.43955V8.8337C26.7305 8.78191 27.0857 8.61621 27.0857 8.42462C27.0857 8.19159 26.5577 8 25.9097 8C25.2617 8 24.7337 8.19159 24.7337 8.42462C24.7337 8.61621 25.0889 8.78191 25.5785 8.8337V9.41366C20.5913 9.60525 16.6025 14.1466 16.6025 19.7184C16.6025 19.7598 16.6025 19.8012 16.6025 19.8426H17.6009ZM29.6825 11.3866C29.7545 11.4125 29.8409 11.4539 29.9369 11.5005C30.0329 11.5471 30.1433 11.6041 30.2585 11.6714C30.3737 11.7387 30.4985 11.8164 30.6233 11.9044C30.6857 11.9458 30.7529 11.9976 30.8153 12.0442C30.8489 12.0701 30.8777 12.096 30.9113 12.1219C30.9449 12.1478 30.9785 12.1737 31.0073 12.1996C31.0697 12.2565 31.1369 12.3135 31.2041 12.3704C31.2377 12.4015 31.2713 12.4326 31.3001 12.4636C31.3337 12.4947 31.3625 12.5258 31.3961 12.562C31.4297 12.5931 31.4585 12.6293 31.4921 12.6604C31.5209 12.6967 31.5545 12.7277 31.5833 12.764C31.6121 12.8002 31.6409 12.8365 31.6745 12.8727C31.7033 12.909 31.7369 12.9452 31.7609 12.9815C31.8185 13.0591 31.8761 13.1316 31.9289 13.2093C31.9577 13.2507 31.9817 13.287 32.0105 13.3284C32.0345 13.3698 32.0585 13.4061 32.0873 13.4475C32.1113 13.4889 32.1353 13.5252 32.1593 13.5666C32.1833 13.608 32.2025 13.6495 32.2265 13.6909C32.2505 13.7323 32.2745 13.7737 32.2937 13.8152C32.3129 13.8566 32.3321 13.898 32.3561 13.9394C32.3753 13.9809 32.3993 14.0223 32.4137 14.0637C32.4329 14.1051 32.4473 14.1466 32.4665 14.188C32.4857 14.2294 32.5001 14.2708 32.5193 14.3071C32.5337 14.3485 32.5481 14.3899 32.5625 14.4262C32.6249 14.5815 32.6681 14.7369 32.7161 14.8767C32.7353 14.9492 32.7545 15.0165 32.7689 15.0838C32.7785 15.1149 32.7881 15.146 32.7929 15.177C32.7977 15.2081 32.8073 15.2392 32.8121 15.2702C32.8265 15.3272 32.8361 15.3842 32.8457 15.4359C32.8505 15.4618 32.8553 15.4877 32.8601 15.5084C32.8649 15.5343 32.8697 15.555 32.8697 15.5758C32.8985 15.7466 32.9129 15.9175 32.9129 15.9175L32.3801 15.9072C32.3801 15.9072 32.3753 15.8191 32.3609 15.6586C32.3609 15.6379 32.3561 15.6172 32.3561 15.5965C32.3513 15.5758 32.3513 15.5499 32.3465 15.5292C32.3417 15.4826 32.3369 15.4308 32.3273 15.3738C32.3225 15.3479 32.3225 15.3169 32.3177 15.291C32.3129 15.2599 32.3081 15.234 32.3033 15.2029C32.2937 15.1408 32.2841 15.0787 32.2697 15.0113C32.2409 14.8819 32.2121 14.7317 32.1689 14.5867C32.1593 14.5505 32.1497 14.509 32.1353 14.4728C32.1209 14.4366 32.1113 14.3951 32.0969 14.3589C32.0825 14.3226 32.0729 14.2812 32.0585 14.2398C32.0441 14.1984 32.0297 14.1621 32.0153 14.1207C32.0009 14.0793 31.9865 14.043 31.9673 14.0016C31.9529 13.9602 31.9337 13.9239 31.9145 13.8825C31.8953 13.8411 31.8809 13.8048 31.8617 13.7634C31.8425 13.722 31.8233 13.6857 31.8041 13.6443C31.7849 13.6029 31.7657 13.5666 31.7417 13.5252C31.7177 13.4889 31.6985 13.4475 31.6745 13.4061C31.6313 13.3284 31.5833 13.2507 31.5353 13.1731C31.5113 13.1368 31.4873 13.1006 31.4633 13.0591C31.4393 13.0229 31.4105 12.9866 31.3865 12.9504C31.3577 12.9141 31.3337 12.8779 31.3049 12.8417C31.2761 12.8054 31.2521 12.7692 31.2233 12.7381C31.1945 12.7018 31.1657 12.6708 31.1417 12.6345C31.1129 12.5983 31.0841 12.5672 31.0553 12.5361C30.9977 12.4688 30.9401 12.4119 30.8825 12.3497C30.8537 12.3187 30.8249 12.2928 30.7961 12.2617C30.7673 12.2358 30.7385 12.2047 30.7097 12.1788C30.6521 12.1271 30.5945 12.0701 30.5369 12.0235C30.4217 11.9251 30.3065 11.8371 30.2009 11.7594C29.9849 11.6041 29.7977 11.4953 29.6633 11.4228C29.5289 11.3503 29.4473 11.3193 29.4473 11.3193C29.4473 11.3193 29.5433 11.3296 29.6825 11.3866Z" fill="white"/>
</svg>
