<svg width="30" height="29" viewBox="0 0 30 29" fill="none" xmlns="http://www.w3.org/2000/svg">
<path d="M16.2982 7.20001C16.2982 5.89505 16.2982 0 16.2982 0H15.2957H14.702H13.6999C13.6999 0 13.6999 5.89505 13.6999 7.20001C13.6999 8.50498 11.1621 10.0891 11.1621 11.949C11.1621 13.8084 11.1621 27.2601 11.1621 27.7344C11.1621 28.2089 11.4904 29 12.226 29C12.7267 29 13.9605 29 14.703 29C15.0536 29 15.2966 29 15.2966 29C16.0391 29 17.2723 29 17.7732 29C18.5093 29 18.8379 28.2088 18.8379 27.7344C18.8379 27.26 18.8379 13.8083 18.8379 11.949C18.8379 10.0891 16.2982 8.50582 16.2982 7.20001ZM14.2607 9.3143C14.0965 9.53116 13.9129 9.80461 13.7133 10.1201C13.5115 10.4365 13.3201 10.8051 13.1256 11.2051C13.0514 11.4095 12.9754 11.6237 12.9118 11.8383C12.9095 12.0658 12.8349 12.2335 12.8674 12.5189C12.8871 13.0481 12.9087 13.6048 12.9306 14.181C12.97 15.3337 12.9773 16.5639 12.9874 17.7931C12.9846 20.2525 12.9077 22.7129 12.7887 24.5572C12.7366 25.4794 12.651 26.2476 12.6106 26.7857C12.5612 27.3238 12.52 27.6317 12.52 27.6317C12.52 27.6317 12.4784 27.3238 12.4289 26.7857C12.3887 26.2476 12.303 25.4795 12.2509 24.5572C12.1319 22.7129 12.0549 20.2525 12.0522 17.7931C12.0613 16.5638 12.0687 15.3337 12.1089 14.181C12.1309 13.6049 12.1524 13.0481 12.1721 12.5189C12.1625 12.2733 12.2582 11.9397 12.3127 11.6742C12.4185 11.4242 12.5356 11.1922 12.6474 10.9737C12.7834 10.7727 12.912 10.5803 13.0355 10.3975C13.1761 10.2307 13.3093 10.0732 13.4338 9.92359C13.6929 9.63506 13.9231 9.39123 14.1241 9.20096C14.5214 8.8169 14.7764 8.62838 14.7764 8.62838C14.7764 8.62838 14.5775 8.87395 14.2607 9.3143Z" fill="#3C6A5A"/>
</svg>
