<svg width="28" height="28" viewBox="0 0 28 28" fill="none" xmlns="http://www.w3.org/2000/svg">
<path d="M21.308 8.02123C21.308 5.81877 20.5207 2.73801 19.301 0.172716L19.2193 0H8.78006L8.69839 0.172716C7.47867 2.73801 6.69141 5.81877 6.69141 8.02123C6.69141 11.8263 9.10407 14.7036 12.5985 15.3128C12.5825 15.3677 12.5637 15.4226 12.5637 15.4828V16.8993C12.5637 17.1537 12.7231 17.372 12.9467 17.459C12.9453 17.4911 12.9413 17.5206 12.9413 17.5541C12.9413 18.1499 13.2466 21.9161 13.5291 25.2754C13.5277 25.2807 13.5277 25.2847 13.5264 25.2901C13.5304 25.3062 13.5317 25.3209 13.5344 25.3383C13.5545 25.5699 13.5733 25.8002 13.592 26.0252C13.5451 26.7642 13.0256 26.7575 12.636 27.3948H9.87928C9.5459 27.3948 9.27411 27.6653 9.27411 28H18.7226C18.7226 27.6666 18.4535 27.3948 18.1187 27.3948H15.362C14.9724 26.7562 14.4529 26.7629 14.4074 26.0252C14.4261 25.7975 14.4462 25.5699 14.4649 25.3383C14.4676 25.3209 14.4703 25.3062 14.473 25.2901C14.4716 25.2834 14.4716 25.2794 14.4703 25.2754C14.7528 21.9161 15.0581 18.1512 15.0581 17.5541C15.0581 17.5206 15.0527 17.4911 15.0527 17.459C15.2763 17.372 15.4356 17.1537 15.4356 16.8993V15.4828C15.4356 15.4226 15.4169 15.3677 15.4008 15.3128C18.8953 14.7036 21.308 11.8263 21.308 8.02123ZM9.16432 0.605174H18.835C19.3371 1.68967 19.7562 2.87859 20.0762 4.04743H8.92734C7.96736 7.13891 7.6554 9.9037 9.49234 12.8666C7.88569 11.6161 7.37022 9.70554 7.29792 7.96366C7.31131 5.92856 8.05305 3.00445 9.16432 0.605174Z" fill="#3C6A5A"/>
</svg>
